<?xml version="1.0" encoding="UTF-8" standalone="no"?>
<!--?xml version="1.0" encoding="utf-8"?-->

<!-- Generator: Adobe Illustrator 18.1.1, SVG Export Plug-In . SVG Version: 6.00 Build 0)  -->

<svg
   version="1.1"
   id="_x32_"
   x="0px"
   y="0px"
   viewBox="0 0 511.63047 511.99982"
   style="opacity:1"
   xml:space="preserve"
   width="511.63046"
   height="511.99982"
   xmlns="http://www.w3.org/2000/svg"
   xmlns:svg="http://www.w3.org/2000/svg"><defs
   id="defs3" />
<style
   type="text/css"
   id="style1">
	.st0{fill:#4B4B4B;}
</style>
<g
   id="g3"
   transform="translate(-0.18437266,4.9999295e-4)">
	<path
   style="opacity:1;fill:#9be2e2;fill-opacity:0.5;stroke-width:3.84468;stroke-opacity:0.964706"
   d="m 234.83002,43.963392 c -48.9088,0 -97.81546,18.658413 -135.132246,55.975198 -74.624371,74.6162 -74.624371,195.6234 0,270.25698 74.633886,74.61883 195.648946,74.62133 270.272006,0.008 74.6269,-74.64177 74.61782,-195.6391 -0.008,-270.264455 C 332.64443,62.622391 283.7383,43.963979 234.82949,43.963979 Z"
   id="rect3" /><path
   class="st0"
   d="m 284.811,248.432 c -14.806,10.36 -32.797,16.458 -52.194,16.458 -19.406,0 -37.398,-6.097 -52.203,-16.458 -25.887,11.109 -41.796,30.661 -51.5,47.922 -12.88,22.902 -2.784,55.289 19.497,55.289 22.272,0 84.206,0 84.206,0 0,0 61.934,0 84.206,0 22.282,0 32.377,-32.387 19.488,-55.289 -9.694,-17.261 -25.604,-36.813 -51.5,-47.922 z"
   style="fill:#333333;fill-opacity:1"
   id="path1" />
	<path
   class="st0"
   d="m 232.617,243.228 c 38.036,0 68.862,-30.834 68.862,-68.861 v -16.495 c 0,-38.036 -30.826,-68.862 -68.862,-68.862 -38.036,0 -68.862,30.826 -68.862,68.862 v 16.495 c 0,38.027 30.826,68.861 68.862,68.861 z"
   style="fill:#333333;stroke:none;stroke-opacity:1"
   id="path2" />
	<path
   class="st0"
   d="m 497.329,441.927 -75.836,-73.882 c 65.265,-90.806 57.141,-218.443 -24.454,-300.037 -90.669,-90.678 -238.177,-90.678 -328.845,0 -90.678,90.668 -90.678,238.195 -0.009,328.862 81.613,81.605 209.25,89.72 300.074,24.427 l 73.855,75.826 c 15.645,18.886 38.748,20 56.602,2.137 17.882,-17.837 17.489,-41.697 -1.387,-57.333 z m -396.858,-77.35 c -72.969,-72.978 -72.969,-191.304 0,-264.265 72.978,-72.978 191.295,-72.978 264.274,0 72.97,72.97 72.979,191.287 0.009,264.273 -72.969,72.96 -191.305,72.96 -264.283,-0.008 z"
   style="fill:#666666;fill-opacity:1"
   id="path3" />
</g>
<g
   id="g5"
   transform="translate(738.31377,12.766443)"><path
     style="opacity:1;fill:#ededed;fill-opacity:1;stroke:none;stroke-width:0.278412;stroke-opacity:1"
     d="m -569,132.45528 c 0,0 4.5839,-0.26913 6.87809,-0.35273 7.79812,-0.28416 15.62534,-1.12023 23.40442,-0.50585 8.83215,0.69755 17.32905,3.94559 26.15315,4.73853 4.04004,0.36303 8.13704,0.4443 12.16894,0 7.68453,-0.84681 14.94025,-4.31873 22.63661,-5.0503 9.0545,-0.86067 18.18502,0.47004 27.27368,0.81762 2.52874,0.0967 7.58352,0.35273 7.58352,0.35273 l 0.35273,6.34901 -6.8781,0.52908 c 0,0 -0.37819,10.11351 -1.58724,14.99073 -0.91408,3.68733 -1.98078,7.52212 -4.23268,10.58168 -2.15519,2.92816 -5.11161,5.47403 -8.46534,6.87809 -3.4373,1.43906 -7.38788,1.3961 -11.11076,1.23454 -4.19266,-0.18195 -8.67096,-0.4416 -12.34531,-2.46906 -2.8398,-1.56696 -4.96935,-4.31244 -6.70174,-7.05445 -2.18672,-3.46116 -3.26863,-7.53149 -4.40903,-11.4635 -0.91848,-3.16683 -1.93997,-9.69988 -1.93997,-9.69988 0,0 -1.40498,-1.31173 -2.29271,-1.58725 -1.91596,-0.59466 -4.10688,-0.58696 -6.01833,0.022 -1.15581,0.36824 -2.97611,2.09429 -2.97611,2.09429 0,0 -0.57073,7.27866 -1.58724,10.75805 -0.8855,3.03089 -2.2035,5.96592 -3.87996,8.64171 -1.5066,2.40468 -3.22274,4.78909 -5.46721,6.52537 -2.05907,1.59288 -4.53444,2.69774 -7.05445,3.35087 -2.68007,0.6946 -5.52043,0.51 -8.28899,0.52908 -2.35436,0.0163 -4.76552,0.19871 -7.05446,-0.35272 -2.50688,-0.60393 -4.99323,-1.62512 -7.05446,-3.1745 -2.46695,-1.85437 -4.51929,-4.34466 -5.99628,-7.05446 -1.26387,-2.31877 -1.67339,-5.01634 -2.29271,-7.58354 -0.61654,-2.55572 -1.11255,-5.14785 -1.41088,-7.75991 -0.28049,-2.45589 -0.35272,-7.40718 -0.35272,-7.40718 l -6.70175,-0.52908 z"
     id="path4-6" /><path
     style="fill:#333333;fill-opacity:1;stroke:none;stroke-width:0.27269;stroke-opacity:1"
     d="m -559.09925,141.55949 c 0,-1.81938 1.31453,-3.5638 2.68716,-4.7636 1.74011,-1.52102 4.17777,-2.0966 6.44031,-2.56818 2.47592,-0.51605 4.73051,-0.86755 7.12302,-0.88431 3.53394,-0.0248 7.04314,0.63786 10.53858,1.15869 2.61932,0.39029 5.2406,0.81927 7.8072,1.47173 2.31949,0.58964 4.72968,1.06118 6.83415,2.20089 1.10241,0.59703 2.3563,1.24938 2.92183,2.36828 1.2879,2.54812 0.65034,5.71232 0.39653,8.55612 -0.19396,2.17322 -0.72978,4.32416 -1.45616,6.38156 -0.75468,2.13756 -1.79061,4.18384 -2.98527,6.11036 -1.05575,1.70253 -2.16851,3.43099 -3.66431,4.76358 -1.4181,1.26337 -3.12092,2.22966 -4.88574,2.93145 -1.93688,0.77022 -4.03398,1.12767 -6.10717,1.34358 -2.56341,0.26696 -5.18147,0.30402 -7.73151,-0.0697 -2.37812,-0.34852 -4.79347,-0.89742 -6.92571,-2.00669 -2.13225,-1.10927 -4.06506,-2.68533 -5.6186,-4.51931 -1.46444,-1.7288 -2.53385,-3.80406 -3.33115,-5.92483 -1.06643,-2.83665 -1.52116,-5.88686 -1.86862,-8.89736 -0.29253,-2.53457 -0.17454,-5.1851 -0.17454,-7.65221 z"
     id="path5-3" /><path
     style="fill:#333333;fill-opacity:1;stroke:none;stroke-width:0.27269;stroke-opacity:1"
     d="m -452.05629,141.53895 c 0,-1.81938 -1.31453,-3.5638 -2.68716,-4.7636 -1.74011,-1.52102 -4.17777,-2.0966 -6.44031,-2.56818 -2.47592,-0.51605 -4.73051,-0.86755 -7.12302,-0.88431 -3.53394,-0.0248 -7.04314,0.63786 -10.53858,1.15869 -2.61932,0.39029 -5.2406,0.81927 -7.8072,1.47173 -2.31949,0.58964 -4.72968,1.06118 -6.83415,2.20089 -1.10241,0.59703 -2.3563,1.24938 -2.92183,2.36828 -1.2879,2.54812 -0.65034,5.71232 -0.39653,8.55612 0.19396,2.17322 0.72978,4.32416 1.45616,6.38156 0.75468,2.13756 1.79061,4.18384 2.98527,6.11036 1.05575,1.70253 2.16851,3.43099 3.66431,4.76358 1.4181,1.26337 3.12092,2.22966 4.88574,2.93145 1.93688,0.77022 4.03398,1.12767 6.10717,1.34358 2.56341,0.26696 5.18147,0.30402 7.73151,-0.0697 2.37812,-0.34852 4.79347,-0.89742 6.92571,-2.00669 2.13225,-1.10927 4.06506,-2.68533 5.6186,-4.51931 1.46444,-1.7288 2.53385,-3.80406 3.33115,-5.92483 1.06643,-2.83665 1.52116,-5.88686 1.86862,-8.89736 0.29253,-2.53457 0.17454,-5.1851 0.17454,-7.65221 z"
     id="path5-3-2" /></g></svg>
