<?xml version="1.0" encoding="UTF-8" standalone="no"?>
<!--?xml version="1.0" encoding="utf-8"?-->

<!-- Generator: Adobe Illustrator 18.1.1, SVG Export Plug-In . SVG Version: 6.00 Build 0)  -->

<svg
   version="1.1"
   id="_x32_"
   x="0px"
   y="0px"
   viewBox="0 0 512 512"
   style="width: 256px; height: 256px; opacity: 1;"
   xml:space="preserve"
   sodipodi:docname="career.svg"
   inkscape:version="1.4.4 (dcaf3e7, 2026-05-05)"
   xmlns:inkscape="http://www.inkscape.org/namespaces/inkscape"
   xmlns:sodipodi="http://sodipodi.sourceforge.net/DTD/sodipodi-0.dtd"
   xmlns="http://www.w3.org/2000/svg"
   xmlns:svg="http://www.w3.org/2000/svg"><defs
   id="defs5"><inkscape:path-effect
     effect="fillet_chamfer"
     id="path-effect19"
     is_visible="true"
     lpeversion="1"
     nodesatellites_param="F,0,0,1,0,0,0,1 @ F,0,0,1,0,0,0,1 @ F,0,0,1,0,0,0,1 @ F,0,0,1,0,0,0,1 @ F,0,0,1,0,0,0,1 @ F,0,0,1,0,26.632126,0,1"
     radius="0"
     unit="px"
     method="auto"
     mode="F"
     chamfer_steps="1"
     flexible="false"
     use_knot_distance="true"
     apply_no_radius="true"
     apply_with_radius="true"
     only_selected="false"
     hide_knots="false" /><inkscape:path-effect
     effect="fillet_chamfer"
     id="path-effect18"
     is_visible="true"
     lpeversion="1"
     nodesatellites_param="F,0,0,1,0,8.330663,0,1 @ F,0,0,1,0,9.3348576,0,1 @ F,0,0,1,0,9.3348576,0,1 | F,0,0,1,0,0,0,1 @ F,0,0,1,0,0,0,1 @ F,0,0,1,0,0,0,1"
     radius="0"
     unit="px"
     method="auto"
     mode="F"
     chamfer_steps="1"
     flexible="false"
     use_knot_distance="true"
     apply_no_radius="true"
     apply_with_radius="true"
     only_selected="false"
     hide_knots="false" /><inkscape:path-effect
     effect="fillet_chamfer"
     id="path-effect10"
     is_visible="true"
     lpeversion="1"
     nodesatellites_param="F,0,0,1,0,9.0358683,0,1 @ F,0,0,1,0,0,0,1 @ F,0,0,1,0,0,0,1 @ F,0,0,1,0,5.891639,0,1 @ F,0,0,1,0,0,0,1 @ F,0,0,1,0,0,0,1"
     radius="0"
     unit="px"
     method="auto"
     mode="F"
     chamfer_steps="1"
     flexible="false"
     use_knot_distance="true"
     apply_no_radius="true"
     apply_with_radius="true"
     only_selected="false"
     hide_knots="false" /><inkscape:path-effect
     effect="fillet_chamfer"
     id="path-effect9"
     is_visible="true"
     lpeversion="1"
     nodesatellites_param="F,0,0,1,0,0,0,1 @ F,0,0,1,0,0,0,1 @ F,0,0,1,0,1.8271344,0,1 @ F,0,0,1,0,4.9970086,0,1 @ F,0,0,1,0,5.3468981,0,1 @ F,0,0,1,0,0,0,1"
     radius="0"
     unit="px"
     method="auto"
     mode="F"
     chamfer_steps="1"
     flexible="false"
     use_knot_distance="true"
     apply_no_radius="true"
     apply_with_radius="true"
     only_selected="false"
     hide_knots="false" /><inkscape:path-effect
     effect="fillet_chamfer"
     id="path-effect8"
     is_visible="true"
     lpeversion="1"
     nodesatellites_param="F,0,0,1,0,0,0,1 @ F,0,0,1,0,6.9164413,0,1 @ F,0,0,1,0,6.7433108,0,1 @ F,0,0,1,0,0,0,1"
     radius="0"
     unit="px"
     method="auto"
     mode="F"
     chamfer_steps="1"
     flexible="false"
     use_knot_distance="true"
     apply_no_radius="true"
     apply_with_radius="true"
     only_selected="false"
     hide_knots="false" /><inkscape:path-effect
     effect="fillet_chamfer"
     id="path-effect7"
     is_visible="true"
     lpeversion="1"
     nodesatellites_param="F,0,0,1,0,7.6811602,0,1 @ F,0,0,1,0,16.651983,0,1 @ F,0,0,1,0,0,0,1 @ F,0,0,1,0,0,0,1 @ F,0,0,1,0,27.359962,0,1 @ F,0,0,1,0,0,0,1 | F,0,0,1,0,0,0,1 @ F,0,0,1,0,9.4915199,0,1 @ F,0,0,1,0,0,0,1 @ F,0,0,1,0,0,0,1 @ F,0,0,1,0,12.587635,0,1 @ F,0,0,1,0,0,0,1"
     radius="0"
     unit="px"
     method="auto"
     mode="F"
     chamfer_steps="1"
     flexible="false"
     use_knot_distance="true"
     apply_no_radius="true"
     apply_with_radius="true"
     only_selected="false"
     hide_knots="false" /><inkscape:path-effect
     effect="fillet_chamfer"
     id="path-effect6"
     is_visible="true"
     lpeversion="1"
     nodesatellites_param="F,0,0,1,0,0,0,1 @ F,0,0,1,0,0,0,1 @ F,0,0,1,0,0,0,1 @ F,0,0,1,0,0,0,1 @ F,0,0,1,0,0,0,1 @ F,0,0,1,0,0,0,1 @ F,0,0,1,0,0,0,1 @ F,0,0,1,0,0,0,1 @ F,0,0,1,0,0,0,1 @ F,0,0,1,0,0,0,1 @ F,0,0,1,0,0,0,1 | F,0,0,1,0,0,0,1 @ F,0,0,1,0,0,0,1 @ F,0,0,1,0,0,0,1 @ F,0,0,1,0,0,0,1 @ F,0,0,1,0,0,0,1 @ F,0,0,1,0,9.650276,0,1 @ F,0,0,1,0,0,0,1 @ F,0,0,1,0,0,0,1"
     radius="0"
     unit="px"
     method="auto"
     mode="F"
     chamfer_steps="1"
     flexible="false"
     use_knot_distance="true"
     apply_no_radius="true"
     apply_with_radius="true"
     only_selected="false"
     hide_knots="false" /><inkscape:path-effect
     effect="fillet_chamfer"
     id="path-effect5"
     is_visible="true"
     lpeversion="1"
     nodesatellites_param="F,0,0,1,0,0,0,1 @ F,0,0,1,0,0,0,1 @ F,0,0,1,0,13.189276,0,1 @ F,0,0,1,0,0,0,1 @ F,0,0,1,0,0,0,1 @ F,0,0,1,0,15.739944,0,1"
     radius="0"
     unit="px"
     method="auto"
     mode="F"
     chamfer_steps="1"
     flexible="false"
     use_knot_distance="true"
     apply_no_radius="true"
     apply_with_radius="true"
     only_selected="false"
     hide_knots="false" /><inkscape:path-effect
     effect="fillet_chamfer"
     id="path-effect5-1"
     is_visible="true"
     lpeversion="1"
     nodesatellites_param="F,0,0,1,0,0,0,1 @ F,0,0,1,0,0,0,1 @ F,0,0,1,0,13.189276,0,1 @ F,0,0,1,0,0,0,1 @ F,0,0,1,0,0,0,1 @ F,0,0,1,0,15.739944,0,1"
     radius="0"
     unit="px"
     method="auto"
     mode="F"
     chamfer_steps="1"
     flexible="false"
     use_knot_distance="true"
     apply_no_radius="true"
     apply_with_radius="true"
     only_selected="false"
     hide_knots="false" /></defs><sodipodi:namedview
   id="namedview5"
   pagecolor="#ffffff"
   bordercolor="#000000"
   borderopacity="0.25"
   inkscape:showpageshadow="2"
   inkscape:pageopacity="0.0"
   inkscape:pagecheckerboard="0"
   inkscape:deskcolor="#d1d1d1"
   showguides="true"
   inkscape:zoom="0.70710678"
   inkscape:cx="238.29498"
   inkscape:cy="259.50819"
   inkscape:window-width="1920"
   inkscape:window-height="1009"
   inkscape:window-x="1912"
   inkscape:window-y="-8"
   inkscape:window-maximized="1"
   inkscape:current-layer="g5"><sodipodi:guide
     position="-492.14632,-83.383908"
     orientation="0.91354546,0.40673664"
     id="guide24"
     inkscape:locked="false"
     inkscape:label=""
     inkscape:color="rgb(0,134,229)" /><sodipodi:guide
     position="-325.07328,161.3259"
     orientation="213.08203,-6.28711"
     id="guide25"
     inkscape:locked="false" /><sodipodi:guide
     position="-331.36039,-51.75613"
     orientation="-22.14258,48.73632"
     id="guide26"
     inkscape:locked="false" /><sodipodi:guide
     position="-288.75,-0.24999838"
     orientation="193.35742,84.10156"
     id="guide27"
     inkscape:locked="false" /><sodipodi:guide
     position="-42.426407,-132.17428"
     orientation="-32.05664,73.70117"
     id="guide28"
     inkscape:locked="false" /><sodipodi:guide
     position="-124.82134,-190.91433"
     orientation="-194.54883,-84.61914"
     id="guide29"
     inkscape:locked="false" /><sodipodi:guide
     position="-209.44048,3.6345"
     orientation="-24.29101,53.46875"
     id="guide30"
     inkscape:locked="false" /><sodipodi:guide
     position="-155.97173,27.92551"
     orientation="-133.40039,-169.10155"
     id="guide31"
     inkscape:locked="false" /><sodipodi:guide
     position="-304.02251,116.2263"
     orientation="83.11915,105.36524"
     id="guide32"
     inkscape:locked="false" /><sodipodi:guide
     position="-198.65727,33.10715"
     orientation="49.65038,-109.2832"
     id="guide33"
     inkscape:locked="false" /><sodipodi:guide
     position="-307.94047,-16.54323"
     orientation="-132.76953,3.91796"
     id="guide34"
     inkscape:locked="false" /><sodipodi:guide
     position="-233.11626,-7.12331"
     orientation="176.73828,76.875"
     id="guide35"
     inkscape:locked="false" /><sodipodi:guide
     position="-151.85118,-124.57288"
     orientation="8.92188,-20.51562"
     id="guide36"
     inkscape:locked="false" /><sodipodi:guide
     position="-176.75688,-192.78347"
     orientation="-176.40625,-76.72852"
     id="guide37"
     inkscape:locked="false" /><sodipodi:guide
     position="-295,-33.999998"
     orientation="-9.25391,20.36914"
     id="guide38"
     inkscape:locked="false" /><sodipodi:guide
     position="61,-201"
     orientation="40.55655,5.73434"
     id="guide40"
     inkscape:locked="false" /><sodipodi:guide
     position="66.73434,-241.55655"
     orientation="-6.39119,9.47341"
     id="guide41"
     inkscape:locked="false" /><sodipodi:guide
     position="76.20775,-235.16536"
     orientation="25.24066,16.53924"
     id="guide42"
     inkscape:locked="false" /><sodipodi:guide
     position="107.08248,-243.67618"
     orientation="-7.7865,11.96353"
     id="guide43"
     inkscape:locked="false" /><sodipodi:guide
     position="104.71052,-252.61952"
     orientation="-25.51645,-16.68846"
     id="guide44"
     inkscape:locked="false" /><sodipodi:guide
     position="97.625,-215.8125"
     orientation="-6.33792,9.33609"
     id="guide45"
     inkscape:locked="false" /><sodipodi:guide
     position="97.35815,-220.76515"
     orientation="-19.76515,-36.35815"
     id="guide46"
     inkscape:locked="false" /></sodipodi:namedview>
<style
   type="text/css"
   id="style1">
	.st0{fill:#4B4B4B;}
</style>
<g
   id="g5">
	<path
   style="opacity:1;fill:#aa8800;fill-opacity:1;stroke-width:1.03278"
   d="m 332.01608,68.718014 c -1.24079,0.0706 -2.48077,0.31931 -3.68561,0.73914 -86.03744,29.95395 -172.09916,59.849696 -258.09515,89.916716 v 274.68245 c 0,30.80604 24.97547,55.78156 55.78151,55.78156 H 378.4668 c 30.79676,0 55.76143,-24.97552 55.76143,-55.78156 V 126.83178 L 339.03081,70.399694 c -2.09452,-1.24157 -4.52068,-1.82321 -7.01473,-1.68168 z"
   id="path23" /><path
   style="opacity:1;fill:#806600;fill-opacity:1;stroke-width:1.13629"
   d="M 198.5231,30.090152 100.30483,140.16285 c 75.0146,-29.34495 150.00501,-58.776637 225.16777,-87.632614 5.05677,-1.941366 12.72983,-1.220481 17.13576,1.606878 l 96.17545,61.718406 V 95.041096 c 0,-35.859976 -25.94457,-64.950944 -57.95016,-64.950944 z"
   id="rect23" /><path
   id="path1"
   style="fill:#4b4b4b"
   d="M 195.12109,0 185.80273,9.3007812 57.001953,138.10156 l -9.302734,9.3086 v 13.17578 265.51367 c 0,47.357 38.53439,85.90039 85.900391,85.90039 h 244.82031 c 47.348,0 85.88086,-38.54239 85.88086,-85.90039 V 85.882812 C 464.29978,38.524812 425.76697,0 378.41797,0 H 208.29688 Z m 13.17579,31.802734 h 170.12304 c 29.866,0 54.07617,24.221125 54.07617,54.078125 V 103.21094 L 342.75,51.824219 C 338.63861,49.470162 331.47849,48.869951 326.75977,50.486328 256.62166,74.511811 186.64438,99.016634 116.64453,123.44922 Z m 125.07617,40 c 2.41868,-0.13725 4.77151,0.426807 6.80273,1.63086 l 92.32031,54.726566 v 297.93945 c 0,29.875 -24.21017,54.0957 -54.07617,54.0957 H 133.59961 c -29.875,0 -54.095704,-24.2207 -54.095704,-54.0957 V 159.71868 C 162.90094,130.56036 246.36166,101.5682 329.79883,72.519531 c 1.16843,-0.407145 2.37093,-0.648301 3.57422,-0.716797 z"
   sodipodi:nodetypes="cccccsssscscccssccscccccssssccc" />
	<path
   style="fill:#4b4b4b;stroke-width:0.716604"
   d="m 275.91474,227.07528 c -5.49492,3.84601 -12.18513,6.11765 -19.38556,6.11765 -7.20617,0 -13.89065,-2.27164 -19.39202,-6.11765 -9.61539,4.13839 -15.52163,11.39543 -19.12472,17.80545 -4.78619,8.50179 -1.03334,20.53715 7.23197,20.53715 8.27677,0 31.28477,0 31.28477,0 0,0 23.00154,0 31.27903,0 8.27104,0 12.02963,-12.03536 7.2377,-20.53715 -3.6038,-6.41073 -9.51005,-13.66706 -19.13117,-17.80545 z"
   id="path2" />
	<path
   style="fill:#4b4b4b;stroke-width:0.716604"
   d="m 256.52846,225.13973 c 14.13358,0 25.57845,-11.44487 25.57845,-25.572 v -6.12983 c 0,-14.11423 -11.44487,-25.57845 -25.57845,-25.57845 -14.12713,0 -25.58419,11.46422 -25.58419,25.57845 v 6.12983 c 0,14.12713 11.45778,25.572 25.58419,25.572 z"
   id="path3" />
	
	
	
<g
   id="g7"
   transform="matrix(0.72654752,0,0,0.72654752,-163.35983,23.233342)"><path
     id="path7"
     style="fill:#4d4d4d;stroke-width:2.22191"
     d="m 761.55468,161.58952 c 0,0 -32.07353,33.97124 -71.63822,33.97124 -39.56467,0 -71.63819,-33.97124 -71.63819,-33.97124 0,0 32.07353,-33.97123 71.63819,-33.97123 39.56469,0 71.63822,33.97123 71.63822,33.97123 z"
     sodipodi:nodetypes="csccc" /><path
     id="path7-6"
     style="fill:#ffffff;fill-opacity:1;stroke-width:1.73139"
     d="m 743.34428,161.89826 c 0,0 -21.6536,22.37948 -53.31566,22.37948 -31.66205,0 -52.38943,-22.37948 -52.38943,-22.37948 0,0 20.72739,-23.46005 52.38943,-23.46005 31.66206,0 53.31566,23.46005 53.31566,23.46005 z"
     sodipodi:nodetypes="csccc" /><circle
     style="fill:#4d4d4d;fill-opacity:1;stroke-width:1.22321"
     id="path8"
     cx="689.65112"
     cy="161.66457"
     r="13.010974" /></g><path
   id="rect3-4"
   style="fill:#4b4b4b;stroke-width:0.350528"
   class="st0"
   transform="matrix(0,0.83935037,-0.72687811,0,89.021284,25.438825)"
   d="m 158.34973,-325.93976 h 39.48747 a 6.9164413,6.9164413 45 0 1 6.91644,6.91644 6.7371026,6.7371026 135.05282 0 1 -6.74331,6.73089 l -39.6606,0 z"
   sodipodi:nodetypes="ccccc"
   inkscape:path-effect="#path-effect8"
   inkscape:original-d="m 158.34973,-325.93976 h 46.40391 v 13.64733 h -46.40391 z" /><path
   id="rect3-3"
   style="fill:#4b4b4b;stroke-width:0.291016"
   class="st0"
   d="m 324.13122,158.31931 -5.12259,7.75964 c 10.39611,8.75701 20.69546,17.66653 31.15577,26.3218 0.77716,0.64306 2.22639,1.1619 3.23548,1.16062 l 30.51115,-0.0387 a 5.0033567,5.0033567 134.96363 0 0 4.997,-5.00335 5.3334867,5.3334867 44.855744 0 0 -5.3469,-5.32004 l -30.07995,0 z"
   sodipodi:nodetypes="ccccccc"
   inkscape:path-effect="#path-effect9"
   inkscape:original-d="m 324.13122,158.31931 -5.12259,7.75964 c 10.86235,9.14974 21.61907,18.46598 32.56412,27.48474 l 37.33528,-0.0474 v -10.31705 h -35.42685 z" /><path
   id="rect3-6-4"
   style="fill:#4b4b4b;stroke-width:0.430185"
   class="st0"
   d="m 191.93945,293 c -16.47744,-0.002 -47.93946,12.05664 -47.93946,12.05664 l 4.64648,18.66211 c 0,0 28.39862,-10.78318 43.25977,-10.78322 15.02553,-1e-5 28.71276,10.89046 43.73828,10.90235 14.91566,0.0118 28.51995,-10.79751 43.43554,-10.75391 14.59291,0.0426 27.84063,10.76602 42.43361,10.76952 16.44749,0.004 47.83203,-12.11523 47.83203,-12.11523 l -4.64649,-18.66016 c 0,0 -28.34849,10.79107 -43.18163,10.75006 -14.58713,-0.0404 -27.81907,-10.80582 -42.40625,-10.80665 -14.89177,-8.5e-4 -28.40121,11.00697 -43.29297,11.02735 -15.08285,0.0206 -28.79604,-11.04667 -43.8789,-11.04883 z m 1e-5,0 C 175.46202,292.99764 144,305.05664 144,305.05664 l 4.64648,18.66211 c 0,0 28.39862,-10.78318 43.25977,-10.78322 15.02553,-1e-5 28.71276,10.89046 43.73828,10.90235 14.91566,0.0118 28.51995,-10.79751 43.43554,-10.75391 14.59291,0.0426 27.84063,10.76602 42.4336,10.76952 16.4475,0.004 47.83203,-12.11523 47.83203,-12.11523 l -4.64648,-18.66016 c 0,0 -28.34849,10.79107 -43.18163,10.75006 -14.58713,-0.0404 -27.81907,-10.80582 -42.40625,-10.80665 -14.89178,-8.5e-4 -28.40121,11.00697 -43.29297,11.02735 -15.08285,0.0206 -28.79604,-11.04667 -43.87891,-11.04883 z"
   sodipodi:nodetypes="sccssssccssss" /><path
   id="rect3-6-1"
   style="fill:#4b4b4b;stroke-width:0.430185"
   class="st0"
   d="M 194.93946,340 C 178.46201,339.99764 147,352.05664 147,352.05664 l 4.64648,18.66211 c 0,0 28.39862,-10.78318 43.25977,-10.78322 15.02552,-2e-5 28.71276,10.89046 43.73828,10.90235 14.91566,0.0118 28.51995,-10.79751 43.43554,-10.75391 14.59291,0.0426 27.84063,10.76602 42.4336,10.76952 16.4475,0.004 47.83203,-12.11523 47.83203,-12.11523 l -4.64648,-18.66016 c 0,0 -28.34849,10.79107 -43.18163,10.75006 -14.58713,-0.0404 -27.81907,-10.80582 -42.40625,-10.80665 -14.89178,-8.5e-4 -28.40122,11.00697 -43.29297,11.02735 -15.08285,0.0206 -28.79605,-11.04667 -43.87891,-11.04883 z"
   sodipodi:nodetypes="sccssssccssss" /><path
   id="rect18-9"
   style="fill:#4d4d4d;fill-opacity:1;stroke-width:0.493065"
   d="m 165.79546,393.47317 -34.40289,48.05938 a 4.7978103,4.7978103 62.798324 0 0 3.90127,7.5905 h 70.70138 a 4.7978103,4.7978103 117.20168 0 0 3.90127,-7.5905 L 175.4936,393.47317 a 5.9634319,5.9634319 0 0 0 -9.69814,0 z m 4.89607,13.04541 24.07226,33.625 -48.84969,-0.17678 z"
   inkscape:path-effect="#path-effect18"
   inkscape:original-d="m 170.64453,386.69922 -44.68555,62.42383 h 89.3711 z m 0.047,19.81936 24.07226,33.625 -48.84969,-0.17678 z"
   sodipodi:nodetypes="cccccccc" /><path
   id="rect3-5-6"
   style="fill:#4b4b4b"
   class="st0"
   d="m -241.91547,424.8034 -17.05169,20.50076 130.13347,149.55282 h -135.93139 v 24.67493 h 165.454478 c 14.708517,0 18.835727,-9.02157 9.206926,-20.14032 C -140.58982,541.09327 -191.29735,482.98711 -241.91547,424.8034 Z"
   sodipodi:nodetypes="ccccccc"
   inkscape:path-effect="#path-effect19"
   inkscape:original-d="m -241.91547,424.8034 -17.05169,20.50076 130.13347,149.55282 h -135.93139 v 24.67493 H -72.678476 C -128.91468,554.46951 -185.47067,489.68467 -241.91547,424.8034 Z"
   transform="matrix(0.27128726,0,0,0.27128726,319.06231,278.4608)" /><path
   style="opacity:1;fill:#4d4d4d;fill-opacity:1;stroke-width:1.07277"
   d="m 323.43523,391.20723 5.73434,40.55655 7.22341,-9.45369 15.30486,23.19379 12.00076,-7.89204 -15.30381,-23.42654 11.39859,-3.21292 z"
   id="rect39"
   sodipodi:nodetypes="cccccccc" /></g>
</svg>
