<?xml version="1.0" encoding="UTF-8" standalone="no"?>
<!-- Created with Inkscape (http://www.inkscape.org/) -->

<svg
   width="8.0245991mm"
   height="3.2587402mm"
   viewBox="0 0 8.0245991 3.2587402"
   version="1.1"
   id="svg1"
   inkscape:version="1.4.4 (dcaf3e7, 2026-05-05)"
   sodipodi:docname="coela_sauhits.svg"
   xml:space="preserve"
   xmlns:inkscape="http://www.inkscape.org/namespaces/inkscape"
   xmlns:sodipodi="http://sodipodi.sourceforge.net/DTD/sodipodi-0.dtd"
   xmlns="http://www.w3.org/2000/svg"
   xmlns:svg="http://www.w3.org/2000/svg"><sodipodi:namedview
     id="namedview1"
     pagecolor="#ffffff"
     bordercolor="#000000"
     borderopacity="0.25"
     inkscape:showpageshadow="2"
     inkscape:pageopacity="0.0"
     inkscape:pagecheckerboard="0"
     inkscape:deskcolor="#d1d1d1"
     inkscape:document-units="mm"
     inkscape:zoom="22.627417"
     inkscape:cx="293.62609"
     inkscape:cy="487.26286"
     inkscape:window-width="1920"
     inkscape:window-height="1009"
     inkscape:window-x="1912"
     inkscape:window-y="-8"
     inkscape:window-maximized="1"
     inkscape:current-layer="layer1"
     showguides="true"><sodipodi:guide
       position="6.167887,3.8638466"
       orientation="0,-1"
       id="guide5"
       inkscape:locked="false" /><sodipodi:guide
       position="4.097717,0.16055666"
       orientation="0,-1"
       id="guide6"
       inkscape:locked="false" /><inkscape:page
       x="0"
       y="0"
       width="8.0245991"
       height="3.2587402"
       id="page2"
       margin="0"
       bleed="0" /></sodipodi:namedview><defs
     id="defs1" /><g
     inkscape:label="Layer 1"
     inkscape:groupmode="layer"
     id="layer1"
     transform="translate(-74.246611,-125.57421)"><g
       id="g337"
       transform="translate(-0.34726562,-2.1332031)"
       inkscape:export-filename="g337.png"
       inkscape:export-xdpi="96"
       inkscape:export-ydpi="96"><path
         d="m 77.785433,130.0117 c -0.0037,0.0889 -0.01898,0.16996 -0.04651,0.24392 -0.03175,0.0834 -0.0826,0.15005 -0.152445,0.19895 -0.06699,0.0467 -0.15823,0.0703 -0.272852,0.0708 v 0.23667 c 0.1678,-4.4e-4 0.308679,-0.0333 0.422197,-0.0982 0.116417,-0.0671 0.204279,-0.1596 0.263549,-0.2775 0.05404,-0.10913 0.08308,-0.23386 0.08785,-0.37466 z"
         style="fill:#bfffff;stroke-width:0.264999"
         id="path337" /><path
         d="m 76.532796,130.0117 c 0.0048,0.1408 0.03433,0.26552 0.08837,0.37466 0.05927,0.1179 0.147133,0.2104 0.26355,0.2775 0.107526,0.0603 0.236711,0.0931 0.387573,0.0977 v -0.23823 c -0.09656,-0.005 -0.176445,-0.027 -0.238228,-0.0687 -0.06985,-0.049 -0.120696,-0.11545 -0.152446,-0.19895 -0.02753,-0.0739 -0.04337,-0.15502 -0.04703,-0.24392 z"
         style="fill:#eb4682;stroke-width:0.264999"
         id="path336" /><path
         d="m 77.272286,129.1792 c -0.150862,0.005 -0.280047,0.0383 -0.387573,0.10025 -0.0799,0.0448 -0.146484,0.10208 -0.199471,0.17156 -0.02422,0.0318 -0.04549,0.0659 -0.06408,0.10284 -0.07287,0.13011 -0.07467,0.27327 -0.08888,0.41651 h 0.301791 c 0,-0.0803 0.009,-0.15357 0.02687,-0.21962 0.0059,-0.022 0.01273,-0.0432 0.02067,-0.0636 0.03175,-0.0835 0.0826,-0.14875 0.152446,-0.19585 0.06178,-0.0433 0.14167,-0.0663 0.238228,-0.0713 z"
         style="fill:#b4e9ff;stroke-width:0.264999"
         id="path335" /><path
         d="m 77.313627,129.17868 v 0.23926 c 0.114777,4.8e-4 0.205797,0.025 0.272852,0.0734 0.06985,0.0471 0.120695,0.11235 0.152445,0.19585 0.03175,0.0816 0.04754,0.17618 0.04754,0.28319 h 0.301791 c 0,-0.15961 -0.02961,-0.29862 -0.08888,-0.41651 -0.05927,-0.11789 -0.147132,-0.2091 -0.263549,-0.2744 -0.192587,-0.11298 -0.408189,-0.0971 -0.42168,-0.10025 v -5.2e-4 z"
         style="fill:#fa5578;stroke-width:0.264999"
         id="path334" /></g><path
       style="fill:#18549b;fill-opacity:1;stroke-width:0.0117115"
       d="m 75.025527,128.64836 c -0.172111,-0.0357 -0.274164,-0.0809 -0.401984,-0.1779 -0.25364,-0.1925 -0.377492,-0.49863 -0.376925,-0.93165 2.64e-4,-0.27637 0.03317,-0.44723 0.121517,-0.63281 0.120097,-0.25229 0.301123,-0.40529 0.562296,-0.47526 0.07475,-0.02 0.127613,-0.0251 0.263093,-0.0255 0.199861,-5.3e-4 0.322583,0.0243 0.458679,0.0927 0.103884,0.0522 0.250555,0.19531 0.316331,0.3086 l 0.04413,0.076 -0.118539,0.0555 c -0.06519,0.0305 -0.124531,0.0555 -0.131857,0.0555 -0.0073,-10e-6 -0.02768,-0.0228 -0.04523,-0.0505 -0.04254,-0.0673 -0.167094,-0.1857 -0.228253,-0.2169 -0.130275,-0.0665 -0.370332,-0.0786 -0.50855,-0.0256 -0.193292,0.074 -0.332825,0.2637 -0.389869,0.52992 -0.02625,0.12245 -0.03469,0.37159 -0.01704,0.50221 0.06382,0.47252 0.3385,0.70349 0.789755,0.66408 0.155567,-0.0136 0.282477,-0.0552 0.40727,-0.13355 l 0.101328,-0.0636 0.0848,0.0994 c 0.04664,0.0547 0.08613,0.10301 0.08775,0.10743 0.0044,0.012 -0.131226,0.0995 -0.230148,0.14851 -0.149704,0.0741 -0.279829,0.10119 -0.509463,0.10591 -0.140925,0.003 -0.222153,-8e-4 -0.27908,-0.0126 z"
       id="path338" /><path
       style="fill:#18549b;fill-opacity:1;stroke-width:0.0117115"
       d="m 78.688032,128.65668 c -0.104032,-0.0144 -0.257638,-0.0674 -0.341048,-0.11765 -0.03591,-0.0217 -0.101238,-0.0771 -0.145174,-0.12326 -0.137399,-0.14431 -0.198533,-0.31471 -0.198533,-0.55336 0,-0.40719 0.195829,-0.67951 0.555421,-0.77238 0.132064,-0.0341 0.350803,-0.0345 0.477237,-8e-4 0.237649,0.0632 0.398203,0.21922 0.482981,0.46922 0.02656,0.0783 0.03078,0.32728 0.0069,0.40634 l -0.01503,0.0497 h -0.60655 -0.606533 l 0.01434,0.0617 c 0.04077,0.17541 0.156504,0.28587 0.351827,0.33582 0.164409,0.042 0.426834,0.0255 0.625808,-0.0395 0.04813,-0.0157 0.08822,-0.0277 0.08908,-0.0267 7.93e-4,0.001 0.02323,0.0452 0.04974,0.0982 l 0.04818,0.0963 -0.04213,0.0176 c -0.200038,0.0836 -0.535614,0.128 -0.746522,0.0988 z m 0.597268,-0.94921 c -0.01,-0.11178 -0.06932,-0.23636 -0.140269,-0.29449 -0.218155,-0.17876 -0.580131,-0.15222 -0.747842,0.0548 -0.06552,0.0809 -0.08954,0.1412 -0.10708,0.26888 l -0.0076,0.0556 h 0.505195 0.505196 z"
       id="path339" /><path
       style="fill:#18549b;fill-opacity:1;stroke-width:0.0117115"
       d="m 80.455938,128.82724 c -0.110305,-0.0165 -0.21995,-0.0824 -0.348601,-0.20963 -0.0618,-0.0611 -0.139484,-0.15015 -0.172633,-0.19791 -0.106511,-0.15346 -0.09999,-0.0843 -0.104005,-1.1021 l -0.0035,-0.8966 -0.03174,-0.006 c -0.01746,-0.003 -0.09752,-0.0177 -0.177906,-0.0316 -0.08039,-0.0139 -0.14868,-0.0276 -0.151752,-0.0303 -0.0031,-0.003 -0.0083,-0.0321 -0.0117,-0.0653 -0.0056,-0.0556 -0.0097,-0.0624 -0.05208,-0.0861 -0.02529,-0.0142 -0.09764,-0.0421 -0.16078,-0.0621 -0.06314,-0.02 -0.114797,-0.0387 -0.114797,-0.0414 0,-0.003 0.0085,-0.0228 0.01886,-0.0446 0.01786,-0.0375 0.01752,-0.0426 -0.0066,-0.0969 -0.02376,-0.0536 -0.0241,-0.0581 -0.0053,-0.069 0.04937,-0.0287 0.06557,-0.0543 0.05806,-0.0918 -0.01556,-0.0778 -0.01506,-0.0791 0.03998,-0.0997 0.04677,-0.0175 0.05324,-0.0244 0.05965,-0.0637 0.01169,-0.0719 0.02265,-0.0742 0.11585,-0.0239 0.168357,0.0909 0.362075,0.26072 0.540872,0.47428 0.03056,0.0365 0.07791,0.0814 0.105238,0.0997 l 0.04968,0.0333 0.0058,0.9467 c 0.0068,1.10587 -0.0084,0.99428 0.150688,1.10671 0.128614,0.0909 0.241401,0.18926 0.283189,0.24695 0.01802,0.0249 0.04138,0.0748 0.05188,0.11097 0.0105,0.0361 0.03139,0.09 0.04641,0.1196 0.01503,0.0296 0.02376,0.0594 0.01942,0.0661 -0.01156,0.018 -0.126363,0.0263 -0.204272,0.0146 z m -0.560139,-2.59734 c 0.0449,-0.0449 -0.0347,-0.16785 -0.220625,-0.34076 -0.09347,-0.0869 -0.274209,-0.21817 -0.300453,-0.21817 -0.0067,0 -0.02278,0.0168 -0.03574,0.0372 l -0.02357,0.0372 0.07664,0.0448 c 0.119697,0.07 0.18764,0.12263 0.304395,0.23603 0.104823,0.1018 0.127516,0.14082 0.09024,0.15512 -0.01198,0.005 -0.05553,-0.0296 -0.131548,-0.10332 -0.128114,-0.12425 -0.328123,-0.26677 -0.374364,-0.26677 -0.0058,0 -0.01871,0.0209 -0.02875,0.0465 l -0.01826,0.0465 0.08549,0.0411 c 0.157657,0.0758 0.326797,0.20139 0.314489,0.23347 -0.01281,0.0334 -0.03619,0.0258 -0.127545,-0.0412 -0.05132,-0.0376 -0.135409,-0.0901 -0.186857,-0.11662 l -0.09355,-0.0482 -0.0071,0.0566 c -0.0039,0.0311 -0.0065,0.057 -0.0058,0.0575 7.93e-4,5.3e-4 0.03543,0.013 0.07723,0.0278 0.08716,0.0308 0.162523,0.0722 0.19303,0.1059 0.01937,0.0214 0.0362,0.0233 0.209854,0.0233 0.131241,0 0.193061,-0.004 0.202816,-0.014 z"
       id="path340" /><path
       style="fill:#18549b;fill-opacity:1;stroke-width:0.0117115"
       d="m 82.07622,128.74409 c -0.07741,-0.0303 -0.157993,-0.0883 -0.241107,-0.1736 l -0.07264,-0.0745 -0.07937,0.0479 c -0.132853,0.0802 -0.214051,0.0995 -0.41847,0.0995 -0.208725,0 -0.299196,-0.0224 -0.41756,-0.10327 -0.172424,-0.11785 -0.233617,-0.29386 -0.171773,-0.49409 0.02082,-0.0675 0.03543,-0.0902 0.09647,-0.15051 0.147473,-0.14564 0.370565,-0.21184 0.758883,-0.22519 l 0.195858,-0.007 v -0.0722 c 0,-0.15187 -0.05586,-0.24483 -0.166471,-0.27703 -0.06541,-0.0191 -0.311589,-0.0188 -0.40064,5.3e-4 -0.06378,0.0138 -0.260868,0.0673 -0.294465,0.0799 -0.01371,0.005 -0.144023,-0.16003 -0.144023,-0.18258 0,-0.006 0.05656,-0.0299 0.125698,-0.0521 0.242496,-0.0779 0.450522,-0.10556 0.669184,-0.089 0.224033,0.017 0.379092,0.0805 0.446265,0.18279 0.05953,0.0906 0.06025,0.0973 0.06253,0.57681 0.0024,0.51096 5.8e-5,0.4964 0.09687,0.59372 0.03544,0.0356 0.06624,0.0806 0.0789,0.1153 0.01143,0.0313 0.03348,0.0897 0.049,0.12985 0.01553,0.0401 0.02495,0.0783 0.02093,0.0848 -0.0118,0.0191 -0.135837,0.0125 -0.194083,-0.0103 z m -0.631394,-0.32933 c 0.09592,-0.0156 0.190183,-0.0618 0.24139,-0.11852 l 0.04029,-0.0446 v -0.19465 -0.19464 l -0.213397,0.007 c -0.350155,0.0107 -0.507976,0.0644 -0.575969,0.19589 -0.02899,0.0561 -0.02043,0.18026 0.01595,0.23136 0.07005,0.0984 0.289785,0.15139 0.491723,0.11862 z"
       id="path341" /></g></svg>
