<?xml version="1.0" encoding="UTF-8" standalone="no"?>
<!--?xml version="1.0" encoding="utf-8"?-->

<!-- Generator: Adobe Illustrator 18.1.1, SVG Export Plug-In . SVG Version: 6.00 Build 0)  -->

<svg
   version="1.1"
   id="_x32_"
   x="0px"
   y="0px"
   viewBox="0 0 512 512"
   style="width: 256px; height: 256px; opacity: 1;"
   xml:space="preserve"
   sodipodi:docname="hoge.svg"
   inkscape:version="1.4.4 (dcaf3e7, 2026-05-05)"
   inkscape:export-filename="hoge.jpg"
   inkscape:export-xdpi="6.4660387"
   inkscape:export-ydpi="6.4660387"
   xmlns:inkscape="http://www.inkscape.org/namespaces/inkscape"
   xmlns:sodipodi="http://sodipodi.sourceforge.net/DTD/sodipodi-0.dtd"
   xmlns="http://www.w3.org/2000/svg"
   xmlns:svg="http://www.w3.org/2000/svg"><defs
   id="defs1" /><sodipodi:namedview
   id="namedview1"
   pagecolor="#ffffff"
   bordercolor="#000000"
   borderopacity="0.25"
   inkscape:showpageshadow="2"
   inkscape:pageopacity="0.0"
   inkscape:pagecheckerboard="0"
   inkscape:deskcolor="#d1d1d1"
   inkscape:zoom="1.4142136"
   inkscape:cx="217.08178"
   inkscape:cy="245.71961"
   inkscape:window-width="1920"
   inkscape:window-height="1009"
   inkscape:window-x="1912"
   inkscape:window-y="-8"
   inkscape:window-maximized="1"
   inkscape:current-layer="_x32_" />
<style
   type="text/css"
   id="style1">
	.st0{fill:#4B4B4B;}
</style>
<g
   id="g3"
   transform="matrix(1.1991114,0,0,1.1991114,1729.2016,-161.1085)"
   inkscape:label="g3"
   style="opacity:1;fill:#666666"
   inkscape:export-filename="g3.svg"
   inkscape:export-xdpi="6.4660387"
   inkscape:export-ydpi="6.4660387"><path
     style="opacity:1;fill:#666666;stroke-width:0.801203"
     d="m -1389.828,298.08326 v 208.73758 c -0.012,14.02028 5.0789,26.89816 13.2233,36.06759 8.1091,9.20179 19.5066,14.94681 31.9218,14.94 h 233.2309 c 12.404,0.007 23.8015,-5.73821 31.9233,-14.94 8.1323,-9.16177 13.2339,-22.04731 13.2218,-36.06759 V 298.08326 h -35.9482 v 208.73924 0 c -0.011,2.9347 -1.0062,5.40019 -2.7029,7.34359 -1.7201,1.91701 -3.9085,3.04125 -6.4939,3.04722 h -76.6724 v -90.24714 h -79.8892 v 90.24714 h -76.6708 c -2.5975,-0.0128 -4.7856,-1.13037 -6.5057,-3.04056 -1.6968,-1.94341 -2.6912,-4.4164 -2.6912,-7.35025 V 298.08326 Z"
     id="path1-7" /><path
     style="fill:#bc6800;fill-opacity:1;stroke-width:1.02593"
     d="m -1228.0009,142.11818 c -14.654,-0.023 -29.4958,5.43322 -40.9688,16.19922 0,0 -165.2989,154.96021 -165.2054,154.85948 -4.3653,4.43163 -6.7264,10.4728 -6.7266,16.69335 -3e-4,13.08346 10.606,23.68977 23.6895,23.68946 6.7265,2e-5 13.2842,-2.7189 17.7773,-7.72462 -0.405,0.44029 163.0955,-152.72681 163.0955,-152.72681 2.391,-2.236 5.2779,-3.28383 8.3359,-3.29882 3.059,0.016 5.9479,1.06401 8.3379,3.291 54.5779,50.67271 163.3832,153.10415 163.2364,152.9629 1.6019,1.74169 3.4559,2.87805 5.5,4.07032 11.2987,6.59377 25.8034,2.78046 32.3984,-8.51758 5.29,-9.06256 4.167,-20.58789 -3.0215,-28.23243 0.076,0.0795 -113.9219,-106.71883 -165.4961,-155.06641 -11.458,-10.76601 -26.2981,-16.22222 -40.9531,-16.19922 z"
     id="path2" /></g>
</svg>
