<?xml version="1.0" encoding="UTF-8" standalone="no"?>
<!--?xml version="1.0" encoding="utf-8"?-->

<!-- Generator: Adobe Illustrator 18.1.1, SVG Export Plug-In . SVG Version: 6.00 Build 0)  -->

<svg
   version="1.1"
   id="_x32_"
   x="0px"
   y="0px"
   viewBox="0 0 512 512"
   style="width: 256px; height: 256px; opacity: 1;"
   xml:space="preserve"
   sodipodi:docname="portfolio.svg"
   inkscape:version="1.4.4 (dcaf3e7, 2026-05-05)"
   xmlns:inkscape="http://www.inkscape.org/namespaces/inkscape"
   xmlns:sodipodi="http://sodipodi.sourceforge.net/DTD/sodipodi-0.dtd"
   xmlns="http://www.w3.org/2000/svg"
   xmlns:svg="http://www.w3.org/2000/svg"><defs
   id="defs2" /><sodipodi:namedview
   id="namedview2"
   pagecolor="#ffffff"
   bordercolor="#000000"
   borderopacity="0.25"
   inkscape:showpageshadow="2"
   inkscape:pageopacity="0.0"
   inkscape:pagecheckerboard="0"
   inkscape:deskcolor="#d1d1d1"
   showguides="true"
   inkscape:zoom="1"
   inkscape:cx="128"
   inkscape:cy="103.5"
   inkscape:window-width="1920"
   inkscape:window-height="1009"
   inkscape:window-x="1912"
   inkscape:window-y="-8"
   inkscape:window-maximized="1"
   inkscape:current-layer="g2"><sodipodi:guide
     position="-351.48451,418.10161"
     orientation="0,-1"
     id="guide3"
     inkscape:locked="false" /><sodipodi:guide
     position="-180.1834,361.00124"
     orientation="0,-1"
     id="guide4"
     inkscape:locked="false" /><sodipodi:guide
     position="-564.46097,417.14002"
     orientation="1,0"
     id="guide5"
     inkscape:locked="false" /><sodipodi:guide
     position="-507.3606,361.7943"
     orientation="1,0"
     id="guide6"
     inkscape:locked="false" /><sodipodi:guide
     position="-518.94453,372.59044"
     orientation="0.70710678,0.70710678"
     id="guide7"
     inkscape:locked="false"
     inkscape:label=""
     inkscape:color="rgb(0,134,229)" /><sodipodi:guide
     position="-546.26022,390.34449"
     orientation="0.70710678,0.70710678"
     id="guide8"
     inkscape:label=""
     inkscape:locked="false"
     inkscape:color="rgb(0,134,229)" /><sodipodi:guide
     position="-564.5625,360.90625"
     orientation="0.70710678,-0.70710678"
     id="guide9"
     inkscape:label=""
     inkscape:locked="false"
     inkscape:color="rgb(0,134,229)" /><sodipodi:guide
     position="-547.47742,388.25631"
     orientation="0.70710678,-0.70710678"
     id="guide10"
     inkscape:label=""
     inkscape:locked="false"
     inkscape:color="rgb(0,134,229)" /></sodipodi:namedview>
<style
   type="text/css"
   id="style1">
	.st0{fill:#4B4B4B;}
</style>
<g
   id="g2"
   style="fill:#4d4d4d">
	<path
   style="fill:#666666"
   d="M 41.798,367.828 V 83.599 h 136.539 94.748 136.539 v 98.536 c 15.189,5.943 29.276,14.532 41.798,25.479 V 41.801 H 0 V 409.627 H 249.427 C 238.472,397.104 229.883,383.013 223.944,367.829 H 41.798 Z"
   id="path1" />
	<path
   style="fill:#808080"
   d="M 503.642,421.497 458.59,376.441 c 11.238,-18.703 17.03,-39.806 17.005,-60.894 0.033,-30.173 -11.58,-60.558 -34.631,-83.597 -23.022,-23.038 -53.411,-34.647 -83.601,-34.631 -30.181,-0.016 -60.571,11.592 -83.604,34.631 -23.034,23.038 -34.659,53.424 -34.622,83.597 -0.03,30.198 11.588,60.591 34.622,83.613 23.033,23.047 53.423,34.656 83.604,34.631 21.063,0.025 42.178,-5.763 60.873,-17.005 l 45.068,45.056 c 11.131,11.144 29.206,11.144 40.337,0 11.145,-11.135 11.145,-29.21 10e-4,-40.345 z m -94.944,-54.608 c -14.246,14.213 -32.68,21.226 -51.334,21.258 -18.65,-0.032 -37.096,-7.045 -51.317,-21.258 -14.226,-14.246 -21.243,-32.68 -21.271,-51.342 0.028,-18.646 7.046,-37.088 21.258,-51.318 14.234,-14.22 32.68,-21.225 51.33,-21.266 18.654,0.041 37.088,7.046 51.334,21.266 14.209,14.23 21.221,32.671 21.258,51.318 -0.037,18.663 -7.049,37.096 -21.258,51.342 z"
   id="path2" />
<path
   style="fill:#1a1a1a;stroke-width:1.00157"
   d="m 41.704813,83.589943 0.05608,284.296277 182.250659,0.028 c -6.95363,-17.12967 -10.83746,-34.74146 -10.83772,-53.22871 3.4e-4,-79.18984 64.19687,-143.3855 143.38672,-143.38477 18.25623,-1e-4 36.14826,4.04695 53.0967,10.83227 V 83.505826 Z"
   id="rect3"
   sodipodi:nodetypes="cccccccc" /><path
   style="fill:#808080;stroke-width:1.31912"
   d="m 62.042347,148.45687 -4.15e-4,9.84951 51.629658,-27.39445 -51.629658,-27.3982 v 9.17521 l 33.706518,17.87818 z"
   id="path10" /></g>
</svg>
