<!--?xml version="1.0" encoding="utf-8"?-->
<!-- Generator: Adobe Illustrator 18.1.1, SVG Export Plug-In . SVG Version: 6.00 Build 0)  -->

<svg version="1.1" id="_x32_" xmlns="http://www.w3.org/2000/svg" xmlns:xlink="http://www.w3.org/1999/xlink" x="0px" y="0px" viewBox="0 0 512 512" style="width: 256px; height: 256px; opacity: 1;" xml:space="preserve">
<style type="text/css">
	.st0{fill:#4B4B4B;}
</style>
<g>
	<path class="st0" d="M41.798,367.828V83.599h136.539v66.877h94.748V83.599h136.539v98.536
		c15.189,5.943,29.276,14.532,41.798,25.479V41.801H0v367.826h249.427c-10.955-12.523-19.544-26.614-25.483-41.798H41.798z" style="fill: rgb(75, 75, 75);"></path>
	<path class="st0" d="M503.642,421.497l-45.052-45.056c11.238-18.703,17.03-39.806,17.005-60.894
		c0.033-30.173-11.58-60.558-34.631-83.597c-23.022-23.038-53.411-34.647-83.601-34.631c-30.181-0.016-60.571,11.592-83.604,34.631
		c-23.034,23.038-34.659,53.424-34.622,83.597c-0.03,30.198,11.588,60.591,34.622,83.613c23.033,23.047,53.423,34.656,83.604,34.631
		c21.063,0.025,42.178-5.763,60.873-17.005l45.068,45.056c11.131,11.144,29.206,11.144,40.337,0
		C514.786,450.707,514.786,432.632,503.642,421.497z M408.698,366.889c-14.246,14.213-32.68,21.226-51.334,21.258
		c-18.65-0.032-37.096-7.045-51.317-21.258c-14.226-14.246-21.243-32.68-21.271-51.342c0.028-18.646,7.046-37.088,21.258-51.318
		c14.234-14.22,32.68-21.225,51.33-21.266c18.654,0.041,37.088,7.046,51.334,21.266c14.209,14.23,21.221,32.671,21.258,51.318
		C429.919,334.21,422.907,352.643,408.698,366.889z" style="fill: rgb(75, 75, 75);"></path>
</g>
</svg>
