<!--?xml version="1.0" encoding="utf-8"?-->
<!-- Generator: Adobe Illustrator 18.1.1, SVG Export Plug-In . SVG Version: 6.00 Build 0)  -->

<svg version="1.1" id="_x32_" xmlns="http://www.w3.org/2000/svg" xmlns:xlink="http://www.w3.org/1999/xlink" x="0px" y="0px" viewBox="0 0 512 512" style="width: 256px; height: 256px; opacity: 1;" xml:space="preserve">
<style type="text/css">
	.st0{fill:#4B4B4B;}
</style>
<g>
	<path class="st0" d="M426.784,407.978c-10.391-17.733-26.476-28.396-41.942-35.512c-15.48-7.109-30.794-10.948-40.01-14.43
		c-7.294-2.71-15.254-6.95-20.928-11.52c-2.837-2.272-5.083-4.624-6.445-6.671c-1.389-2.073-1.821-3.661-1.814-4.73
		c0-7.334,0-10.644,0-21.792c9.766-10.87,23.798-27.712,29.558-54.413c2.02-0.91,4.013-1.934,5.933-3.268
		c4.777-3.296,8.829-8.093,12.264-14.597c3.462-6.537,6.518-14.902,9.786-26.33c1.655-5.806,2.419-10.842,2.419-15.32
		c0-2.272-0.233-4.378-0.632-6.371c68.504-88.217-34.242-203.827-110.241-190.314c-59.529-15.307-113.225,37.212-134.365,83.34
		c-17.154,37.432-11.394,89.055,6.724,106.568c-0.452,2.1-0.704,4.358-0.698,6.777c0.007,4.491,0.771,9.528,2.426,15.32
		c4.372,15.228,8.318,25.061,13.427,32.276c2.558,3.58,5.461,6.458,8.624,8.65c1.92,1.335,3.913,2.358,5.933,3.268
		c5.76,26.695,19.785,43.537,29.551,54.4c0,11.149,0,14.471,0,21.805c0.027,0.91-0.432,2.592-1.946,4.75
		c-2.206,3.236-6.544,7.102-11.574,10.371c-5.016,3.289-10.73,6.073-15.526,7.76c-6.226,2.192-15.188,4.651-24.995,8.112
		c-14.716,5.215-31.591,12.73-45.104,26.216c-13.547,13.441-23.168,33.146-23.088,60.173c0,3.442,0.153,7.003,0.466,10.697
		c0.199,2.299,1.01,4.205,1.986,5.833c1.867,3.03,4.398,5.375,7.574,7.767c5.555,4.125,13.274,8.172,23.3,12.178
		c29.997,11.92,80.736,23.008,148.557,23.028c55.104,0,98.973-7.361,129.542-16.484c15.294-4.577,27.246-9.56,35.83-14.503
		c4.305-2.498,7.766-4.95,10.504-7.614c1.369-1.342,2.565-2.751,3.555-4.372c0.977-1.628,1.787-3.534,1.986-5.833
		c0.306-3.694,0.458-7.235,0.458-10.67C437.892,434.512,433.707,419.764,426.784,407.978z M320.343,362.38
		c0.339,0.226,0.718,0.385,1.063,0.611l-26.117,63.821l-31.492-39.371l45.882-33.718
		C312.815,356.926,316.423,359.803,320.343,362.38z M180.589,252.179l-0.757-4.286l-4.093-1.462c-2.604-0.93-4.591-1.88-6.325-3.082
		c-2.558-1.807-4.883-4.272-7.587-9.328c-2.677-5.023-5.514-12.524-8.617-23.413c-1.362-4.764-1.847-8.464-1.847-11.215
		c0.007-3.189,0.618-5.063,1.242-6.238c0.944-1.714,2.1-2.445,3.568-3.036c1.023-0.385,2.086-0.531,2.697-0.584l3.475,0.738
		l8.843,26.741l5.103-23.812c0,0,80.616-32.316,90.821-88.443c6.803,35.717,72.458,79.939,72.458,79.939v32.316l12.656-27.425
		l0.545-0.06c0.485-0.014,2.864,0.219,4.432,1.269c0.857,0.545,1.554,1.182,2.192,2.359c0.624,1.176,1.236,3.042,1.242,6.238
		c0.006,2.751-0.485,6.444-1.84,11.215c-4.126,14.536-7.826,22.988-11.222,27.678c-1.701,2.365-3.255,3.854-4.983,5.062
		c-1.734,1.203-3.72,2.152-6.325,3.082l-4.092,1.462l-0.758,4.286c-4.79,26.821-18.609,41.902-28.814,53.27l-1.927,2.133v2.877
		c0,13.6,0,16.709,0,24.655c0.013,3.588,1.004,6.897,2.498,9.873l-47.171,34.668l-47.244-34.721c1.515-2.95,2.552-6.206,2.564-9.82
		c0-7.946,0-11.048,0-24.655v-2.877l-1.92-2.133C199.199,294.082,185.379,279,180.589,252.179z M196.92,358.514
		c1.9-1.514,3.701-3.122,5.362-4.823l45.929,33.751l-31.499,39.371l-26.097-63.808C192.787,361.597,194.907,360.108,196.92,358.514z
		 M422.525,461.413c-0.318,0.506-1.488,1.821-3.554,3.336c-3.9,2.936-10.676,6.63-19.859,10.284
		c-27.618,11.029-76.922,22.018-143.108,22.004c-53.749,0-96.322-7.216-125.256-15.866c-14.451-4.305-25.512-9.009-32.642-13.128
		c-3.554-2.046-6.112-3.96-7.507-5.342c-0.618-0.598-0.957-1.043-1.13-1.289c-0.239-3.095-0.379-6.085-0.379-8.916
		c0.02-15.759,3.541-27.632,9.029-37.072c8.212-14.125,21.266-23.167,35.226-29.605c13.958-6.444,28.389-10.019,38.939-13.713
		c2.837-1.01,5.787-2.319,8.75-3.76l32.614,79.726l42.355-52.952l42.354,52.952l32.628-79.766c2.864,1.388,5.754,2.684,8.597,3.747
		c7.083,2.644,15.792,5.089,25.028,8.384c13.838,4.917,28.595,11.706,39.564,22.642c10.929,10.99,18.649,25.832,18.736,49.444
		C422.911,455.342,422.771,458.318,422.525,461.413z" style="fill: rgb(75, 75, 75);"></path>
	<circle class="st0" cx="255.791" cy="475.286" r="6.378" style="fill: rgb(75, 75, 75);"></circle>
	<circle class="st0" cx="256.216" cy="435.742" r="6.378" style="fill: rgb(75, 75, 75);"></circle>
</g>
</svg>
