<svg xmlns="http://www.w3.org/2000/svg" style="background: transparent; background-color: transparent;" xmlns:xlink="http://www.w3.org/1999/xlink" version="1.1" width="570px" height="322px" viewBox="0 0 570 322"><defs/><g><g data-cell-id="0"><g data-cell-id="1"><g data-cell-id="13"><g><path d="M 165.9 39.11 L 165.9 11.85 L 556.95 11.85 L 556.95 39.11" fill="#ffffff" stroke="#000000" stroke-width="1.19" stroke-miterlimit="10" pointer-events="all" style="fill: rgb(255, 255, 255); stroke: rgb(0, 0, 0);"/><path d="M 165.9 39.11 L 165.9 308.1 L 556.95 308.1 L 556.95 39.11" fill="none" stroke="#000000" stroke-width="1.19" stroke-miterlimit="10" pointer-events="none" style="stroke: rgb(0, 0, 0);"/><path d="M 165.9 39.11 L 556.95 39.11" fill="none" stroke="#000000" stroke-width="1.19" stroke-miterlimit="10" pointer-events="none" style="stroke: rgb(0, 0, 0);"/></g><g><g transform="scale(1.185)"><switch><foreignObject style="overflow: visible; text-align: left;" pointer-events="none" width="100%" height="100%" requiredFeatures="http://www.w3.org/TR/SVG11/feature#Extensibility"><div xmlns="http://www.w3.org/1999/xhtml" style="display: flex; align-items: unsafe center; justify-content: unsafe center; width: 328px; height: 1px; padding-top: 22px; margin-left: 141px;"><div style="box-sizing: border-box; font-size: 0; text-align: center; color: #000000; "><div style="display: inline-block; font-size: 12px; font-family: Helvetica; color: #000000; line-height: 1.2; pointer-events: all; font-weight: bold; white-space: normal; word-wrap: normal; ">GC CloudRun / localhost:8000</div></div></div></foreignObject><text x="305" y="25" fill="light-dark(#000000,#000000)" font-family="Helvetica" font-size="12px" text-anchor="middle" font-weight="bold">GC CloudRun / localhost:8000</text></switch></g></g><g data-cell-id="2"><g><path d="M 177.75 74.66 L 177.75 47.4 L 545.1 47.4 L 545.1 74.66" fill="#ffffff" stroke="#000000" stroke-width="1.19" stroke-miterlimit="10" pointer-events="all" style="fill: rgb(255, 255, 255); stroke: rgb(0, 0, 0);"/><path d="M 177.75 74.66 L 177.75 296.25 L 545.1 296.25 L 545.1 74.66" fill="none" stroke="#000000" stroke-width="1.19" stroke-miterlimit="10" pointer-events="none" style="stroke: rgb(0, 0, 0);"/><path d="M 177.75 74.66 L 545.1 74.66" fill="none" stroke="#000000" stroke-width="1.19" stroke-miterlimit="10" pointer-events="none" style="stroke: rgb(0, 0, 0);"/></g><g><g transform="scale(1.185)"><switch><foreignObject style="overflow: visible; text-align: left;" pointer-events="none" width="100%" height="100%" requiredFeatures="http://www.w3.org/TR/SVG11/feature#Extensibility"><div xmlns="http://www.w3.org/1999/xhtml" style="display: flex; align-items: unsafe center; justify-content: unsafe center; width: 308px; height: 1px; padding-top: 52px; margin-left: 151px;"><div style="box-sizing: border-box; font-size: 0; text-align: center; color: #000000; "><div style="display: inline-block; font-size: 12px; font-family: Helvetica; color: #000000; line-height: 1.2; pointer-events: all; font-weight: bold; white-space: normal; word-wrap: normal; ">FastAPI</div></div></div></foreignObject><text x="305" y="55" fill="light-dark(#000000,#000000)" font-family="Helvetica" font-size="12px" text-anchor="middle" font-weight="bold">FastAPI</text></switch></g></g><g data-cell-id="9"><g><path d="M 237 165.9 L 237 193.9" fill="none" stroke="#000000" stroke-width="1.19" stroke-miterlimit="10" pointer-events="stroke" style="stroke: rgb(0, 0, 0);"/><path d="M 237 200.13 L 232.85 191.83 L 237 193.9 L 241.15 191.83 Z" fill="#000000" stroke="#000000" stroke-width="1.19" stroke-miterlimit="10" pointer-events="all" style="fill: rgb(0, 0, 0); stroke: rgb(0, 0, 0);"/></g></g><g data-cell-id="3"><g><rect x="201.45" y="94.8" width="142.2" height="71.1" rx="10.67" ry="10.67" fill="#ffffff" stroke="#000000" stroke-width="1.19" pointer-events="all" style="fill: rgb(255, 255, 255); stroke: rgb(0, 0, 0);"/></g><g><g transform="scale(1.185)"><switch><foreignObject style="overflow: visible; text-align: left;" pointer-events="none" width="100%" height="100%" requiredFeatures="http://www.w3.org/TR/SVG11/feature#Extensibility"><div xmlns="http://www.w3.org/1999/xhtml" style="display: flex; align-items: unsafe center; justify-content: unsafe center; width: 118px; height: 1px; padding-top: 110px; margin-left: 171px;"><div style="box-sizing: border-box; font-size: 0; text-align: center; color: #000000; "><div style="display: inline-block; font-size: 12px; font-family: Helvetica; color: #000000; line-height: 1.2; pointer-events: all; white-space: normal; word-wrap: normal; ">Python<br /><br />Request / Responce</div></div></div></foreignObject><text x="230" y="114" fill="light-dark(#000000,#000000)" font-family="Helvetica" font-size="12px" text-anchor="middle">Python...</text></switch></g></g></g><g data-cell-id="12"><g><path d="M 308.1 201.45 L 308.1 173.45" fill="none" stroke="#000000" stroke-width="1.19" stroke-miterlimit="10" pointer-events="stroke" style="stroke: rgb(0, 0, 0);"/><path d="M 308.1 167.22 L 312.25 175.52 L 308.1 173.45 L 303.95 175.52 Z" fill="#000000" stroke="#000000" stroke-width="1.19" stroke-miterlimit="10" pointer-events="all" style="fill: rgb(0, 0, 0); stroke: rgb(0, 0, 0);"/></g></g><g data-cell-id="16"><g><path d="M 343.65 219.23 L 371.65 219.23" fill="none" stroke="#000000" stroke-width="1.19" stroke-miterlimit="10" pointer-events="stroke" style="stroke: rgb(0, 0, 0);"/><path d="M 377.88 219.23 L 369.58 223.37 L 371.65 219.23 L 369.58 215.08 Z" fill="#000000" stroke="#000000" stroke-width="1.19" stroke-miterlimit="10" pointer-events="all" style="fill: rgb(0, 0, 0); stroke: rgb(0, 0, 0);"/></g></g><g data-cell-id="4"><g><rect x="201.45" y="201.45" width="142.2" height="71.1" rx="10.67" ry="10.67" fill="#ffffff" stroke="#000000" stroke-width="1.19" pointer-events="all" style="fill: rgb(255, 255, 255); stroke: rgb(0, 0, 0);"/></g><g><g transform="scale(1.185)"><switch><foreignObject style="overflow: visible; text-align: left;" pointer-events="none" width="100%" height="100%" requiredFeatures="http://www.w3.org/TR/SVG11/feature#Extensibility"><div xmlns="http://www.w3.org/1999/xhtml" style="display: flex; align-items: unsafe center; justify-content: unsafe center; width: 118px; height: 1px; padding-top: 200px; margin-left: 171px;"><div style="box-sizing: border-box; font-size: 0; text-align: center; color: #000000; "><div style="display: inline-block; font-size: 12px; font-family: Helvetica; color: #000000; line-height: 1.2; pointer-events: all; white-space: normal; word-wrap: normal; ">Python<br /><br />CORS処理</div></div></div></foreignObject><text x="230" y="204" fill="light-dark(#000000,#000000)" font-family="Helvetica" font-size="12px" text-anchor="middle">Python...</text></switch></g></g></g><g data-cell-id="17"><g><path d="M 379.2 254.78 L 351.2 254.78" fill="none" stroke="#000000" stroke-width="1.19" stroke-miterlimit="10" pointer-events="stroke" style="stroke: rgb(0, 0, 0);"/><path d="M 344.97 254.78 L 353.27 250.63 L 351.2 254.78 L 353.27 258.92 Z" fill="#000000" stroke="#000000" stroke-width="1.19" stroke-miterlimit="10" pointer-events="all" style="fill: rgb(0, 0, 0); stroke: rgb(0, 0, 0);"/></g></g><g data-cell-id="18"><g><path d="M 414.75 201.45 L 414.75 173.45" fill="none" stroke="#000000" stroke-width="1.19" stroke-miterlimit="10" pointer-events="stroke" style="stroke: rgb(0, 0, 0);"/><path d="M 414.75 167.22 L 418.9 175.52 L 414.75 173.45 L 410.6 175.52 Z" fill="#000000" stroke="#000000" stroke-width="1.19" stroke-miterlimit="10" pointer-events="all" style="fill: rgb(0, 0, 0); stroke: rgb(0, 0, 0);"/></g></g><g data-cell-id="15"><g><rect x="379.2" y="201.45" width="142.2" height="71.1" rx="10.67" ry="10.67" fill="#ffffff" stroke="#000000" stroke-width="1.19" pointer-events="all" style="fill: rgb(255, 255, 255); stroke: rgb(0, 0, 0);"/></g><g><g transform="scale(1.185)"><switch><foreignObject style="overflow: visible; text-align: left;" pointer-events="none" width="100%" height="100%" requiredFeatures="http://www.w3.org/TR/SVG11/feature#Extensibility"><div xmlns="http://www.w3.org/1999/xhtml" style="display: flex; align-items: unsafe center; justify-content: unsafe center; width: 118px; height: 1px; padding-top: 200px; margin-left: 321px;"><div style="box-sizing: border-box; font-size: 0; text-align: center; color: #000000; "><div style="display: inline-block; font-size: 12px; font-family: Helvetica; color: #000000; line-height: 1.2; pointer-events: all; white-space: normal; word-wrap: normal; ">Python<br /><br />バリデーション処理</div></div></div></foreignObject><text x="380" y="204" fill="light-dark(#000000,#000000)" font-family="Helvetica" font-size="12px" text-anchor="middle">Python...</text></switch></g></g></g><g data-cell-id="19"><g><path d="M 485.85 165.9 L 485.85 193.9" fill="none" stroke="#000000" stroke-width="1.19" stroke-miterlimit="10" pointer-events="stroke" style="stroke: rgb(0, 0, 0);"/><path d="M 485.85 200.13 L 481.7 191.83 L 485.85 193.9 L 490 191.83 Z" fill="#000000" stroke="#000000" stroke-width="1.19" stroke-miterlimit="10" pointer-events="all" style="fill: rgb(0, 0, 0); stroke: rgb(0, 0, 0);"/></g></g><g data-cell-id="8"><g><rect x="379.2" y="94.8" width="142.2" height="71.1" rx="10.67" ry="10.67" fill="#ffffff" stroke="#000000" stroke-width="1.19" pointer-events="all" style="fill: rgb(255, 255, 255); stroke: rgb(0, 0, 0);"/></g><g><g transform="scale(1.185)"><switch><foreignObject style="overflow: visible; text-align: left;" pointer-events="none" width="100%" height="100%" requiredFeatures="http://www.w3.org/TR/SVG11/feature#Extensibility"><div xmlns="http://www.w3.org/1999/xhtml" style="display: flex; align-items: unsafe center; justify-content: unsafe center; width: 118px; height: 1px; padding-top: 110px; margin-left: 321px;"><div style="box-sizing: border-box; font-size: 0; text-align: center; color: #000000; "><div style="display: inline-block; font-size: 12px; font-family: Helvetica; color: #000000; line-height: 1.2; pointer-events: all; white-space: normal; word-wrap: normal; ">Python<br /><br />Date / 曜日 演算</div></div></div></foreignObject><text x="380" y="114" fill="light-dark(#000000,#000000)" font-family="Helvetica" font-size="12px" text-anchor="middle">Python...</text></switch></g></g></g><g data-cell-id="35"><g><image x="501.25" y="53.33" width="35.55" height="35.55" xlink:href="https://cdn.jsdelivr.net/gh/devicons/devicon@latest/icons/fastapi/fastapi-original.svg" preserveAspectRatio="none"/></g></g><g data-cell-id="37"><g><image x="201.45" y="82.95" width="35.55" height="35.55" xlink:href="https://cdn.jsdelivr.net/gh/devicons/devicon@latest/icons/python/python-original-wordmark.svg" preserveAspectRatio="none"/></g></g><g data-cell-id="38"><g><image x="379.2" y="82.95" width="35.55" height="35.55" xlink:href="https://cdn.jsdelivr.net/gh/devicons/devicon@latest/icons/python/python-original-wordmark.svg" preserveAspectRatio="none"/></g></g><g data-cell-id="39"><g><image x="379.2" y="189.6" width="35.55" height="35.55" xlink:href="https://cdn.jsdelivr.net/gh/devicons/devicon@latest/icons/python/python-original-wordmark.svg" preserveAspectRatio="none"/></g></g><g data-cell-id="40"><g><image x="201.45" y="189.6" width="35.55" height="35.55" xlink:href="https://cdn.jsdelivr.net/gh/devicons/devicon@latest/icons/python/python-original-wordmark.svg" preserveAspectRatio="none"/></g></g></g><g data-cell-id="36"><g><image x="521.4" y="11.85" width="35.55" height="35.55" xlink:href="https://cdn.jsdelivr.net/gh/devicons/devicon@latest/icons/cloudrun/cloudrun-original.svg" preserveAspectRatio="none"/></g></g></g><g data-cell-id="27"><g><path d="M 69.92 130.94 L 193.98 113.62" fill="none" stroke="#000000" stroke-width="1.19" stroke-miterlimit="10" pointer-events="stroke" style="stroke: rgb(0, 0, 0);"/><path d="M 200.14 112.76 L 192.5 118.01 L 193.98 113.62 L 191.35 109.8 Z" fill="#000000" stroke="#000000" stroke-width="1.19" stroke-miterlimit="10" pointer-events="all" style="fill: rgb(0, 0, 0); stroke: rgb(0, 0, 0);"/></g><g data-cell-id="28"><g><g transform="scale(1.185)"><switch><foreignObject style="overflow: visible; text-align: left;" pointer-events="none" width="100%" height="100%" requiredFeatures="http://www.w3.org/TR/SVG11/feature#Extensibility"><div xmlns="http://www.w3.org/1999/xhtml" style="display: flex; align-items: unsafe center; justify-content: unsafe center; width: 1px; height: 1px; padding-top: 95px; margin-left: 102px;"><div style="box-sizing: border-box; font-size: 0; text-align: center; color: #000000; "><div style="display: inline-block; font-size: 11px; font-family: Helvetica; color: light-dark(#000000, #ffffff); line-height: 1.2; pointer-events: all; white-space: nowrap; "><span><font style="color: light-dark(rgb(0, 0, 0), rgb(0, 0, 0));">HTTP POST</font></span></div></div></div></foreignObject><text x="102" y="98" fill="light-dark(#000000, #ffffff)" font-family="Helvetica" font-size="11px" text-anchor="middle">HTTP POST</text></switch></g></g></g></g><g data-cell-id="24"><g><rect x="11.85" y="100.73" width="59.25" height="59.25" fill="none" stroke="none" pointer-events="all"/><path d="M 32.7 100.73 C 26.21 100.73 20.92 105.78 20.92 111.99 C 20.92 115.75 22.85 119.07 25.8 121.12 C 17 124.05 11.85 132.49 11.85 140.9 L 11.85 147.77 L 12.67 147.77 L 32.32 147.77 L 32.32 150.69 C 32.32 152.71 34.05 154.36 36.16 154.36 L 48.08 154.36 L 48.08 156.82 L 42.84 156.82 C 41.92 156.81 41.17 157.51 41.17 158.39 C 41.17 159.27 41.92 159.97 42.84 159.96 L 60.58 159.96 C 61.5 159.97 62.25 159.27 62.25 158.39 C 62.25 157.51 61.5 156.81 60.58 156.82 L 55.34 156.82 L 55.34 154.36 L 67.26 154.36 C 69.37 154.36 71.1 152.71 71.1 150.69 L 71.1 133.67 C 71.1 131.65 69.37 130 67.26 130 L 50.53 130 C 49.95 129.05 49.27 128.12 48.51 127.23 C 46.32 124.66 43.34 122.41 39.57 121.14 C 42.54 119.09 44.48 115.76 44.48 111.99 C 44.48 105.78 39.2 100.73 32.7 100.73 Z M 32.7 102.61 C 38.13 102.61 42.51 106.8 42.51 111.99 C 42.51 117.19 38.13 121.38 32.7 121.38 C 27.27 121.38 22.89 117.19 22.89 111.99 C 22.89 106.8 27.27 102.61 32.7 102.61 Z M 27.72 122.2 C 29.23 122.88 30.92 123.26 32.7 123.26 C 34.47 123.26 36.16 122.89 37.66 122.21 C 41.8 123.25 44.94 125.54 47.24 128.22 C 47.73 128.8 48.18 129.39 48.59 130 L 36.16 130 C 34.05 130 32.32 131.65 32.32 133.67 L 32.32 146.2 L 13.49 146.2 L 13.49 140.9 C 13.49 132.66 18.71 124.44 27.72 122.2 Z M 36.16 131.88 L 67.26 131.88 C 68.31 131.88 69.13 132.66 69.13 133.67 L 69.13 150.69 C 69.13 151.69 68.31 152.47 67.26 152.47 L 36.16 152.47 C 35.11 152.47 34.29 151.69 34.29 150.69 L 34.29 133.67 C 34.29 132.66 35.11 131.88 36.16 131.88 Z M 36.99 133.86 L 36.99 150.42 L 66.43 150.42 L 66.43 133.86 Z" fill="#000000" stroke="none" pointer-events="all" style="fill: rgb(0, 0, 0);"/></g><g><g transform="scale(1.185)"><switch><foreignObject style="overflow: visible; text-align: left;" pointer-events="none" width="100%" height="100%" requiredFeatures="http://www.w3.org/TR/SVG11/feature#Extensibility"><div xmlns="http://www.w3.org/1999/xhtml" style="display: flex; align-items: unsafe flex-start; justify-content: unsafe center; width: 1px; height: 1px; padding-top: 142px; margin-left: 35px;"><div style="box-sizing: border-box; font-size: 0; text-align: center; color: #000000; "><div style="display: inline-block; font-size: 12px; font-family: Helvetica; color: #000000; line-height: 1.2; pointer-events: all; white-space: nowrap; ">client</div></div></div></foreignObject><text x="35" y="154" fill="light-dark(#000000,#000000)" font-family="Helvetica" font-size="12px" text-anchor="middle">client</text></switch></g></g></g><g data-cell-id="26"><g><path d="M 201.45 148.13 L 78.64 143.1" fill="none" stroke="#000000" stroke-width="1.19" stroke-miterlimit="10" pointer-events="stroke" style="stroke: rgb(0, 0, 0);"/><path d="M 72.42 142.85 L 80.88 139.04 L 78.64 143.1 L 80.54 147.33 Z" fill="#000000" stroke="#000000" stroke-width="1.19" stroke-miterlimit="10" pointer-events="all" style="fill: rgb(0, 0, 0); stroke: rgb(0, 0, 0);"/></g><g data-cell-id="29"><g><g transform="scale(1.185)"><switch><foreignObject style="overflow: visible; text-align: left;" pointer-events="none" width="100%" height="100%" requiredFeatures="http://www.w3.org/TR/SVG11/feature#Extensibility"><div xmlns="http://www.w3.org/1999/xhtml" style="display: flex; align-items: unsafe center; justify-content: unsafe center; width: 1px; height: 1px; padding-top: 136px; margin-left: 111px;"><div style="box-sizing: border-box; font-size: 0; text-align: center; color: #000000; "><div style="display: inline-block; font-size: 11px; font-family: Helvetica; color: light-dark(#000000, #ffffff); line-height: 1.2; pointer-events: all; white-space: nowrap; "><span><font style="color: light-dark(rgb(0, 0, 0), rgb(0, 0, 0));">Response<br />(Base64)</font></span></div></div></div></foreignObject><text x="111" y="139" fill="light-dark(#000000, #ffffff)" font-family="Helvetica" font-size="11px" text-anchor="middle">Response...</text></switch></g></g></g></g><g data-cell-id="ReQAUJSYZKrS6BBiUjEP-40"><g><path d="M 0 0 L 0 0 L 568.8 0 L 568.8 0" fill="#ffffff" stroke="#000000" stroke-width="1.19" stroke-miterlimit="10" pointer-events="all" style="fill: light-dark(#ffffff, var(--ge-dark-color, #121212)); stroke: light-dark(rgb(0, 0, 0), rgb(255, 255, 255));"/><path d="M 0 0 L 0 319.95 L 568.8 319.95 L 568.8 0" fill="none" stroke="#000000" stroke-width="1.19" stroke-miterlimit="10" pointer-events="none" style="stroke: light-dark(rgb(0, 0, 0), rgb(255, 255, 255));"/></g></g></g></g></g><switch><g requiredFeatures="http://www.w3.org/TR/SVG11/feature#Extensibility"/><a transform="translate(0,-5)" xlink:href="https://www.drawio.com/doc/faq/svg-export-text-problems" target="_blank"><text text-anchor="middle" font-size="10px" x="50%" y="100%">Text is not SVG - cannot display</text></a></switch></svg>